<svg width="190" height="190" viewBox="0 0 190 190" fill="none" xmlns="http://www.w3.org/2000/svg">
<g opacity="0.85">
<path d="M189.928 94.914C189.936 112.221 185.215 129.202 176.275 144.021C167.335 158.84 154.516 170.936 139.202 179C123.889 187.065 106.663 190.792 89.3854 189.779C72.1078 188.767 55.4352 183.053 41.1686 173.255C31.2752 166.428 22.7523 157.803 16.0434 147.829C7.79346 135.498 2.54595 121.407 0.721289 106.684C-1.10337 91.9612 0.545491 77.0154 5.53587 63.0442C10.5262 49.0731 18.7194 36.4648 29.4589 26.2296C40.1985 15.9944 53.1859 8.41664 67.3808 4.10348C81.5757 -0.209684 96.5834 -1.13838 111.202 1.39176C125.82 3.9219 139.643 9.84061 151.562 18.6736C163.482 27.5067 173.167 39.0086 179.842 52.2579C186.516 65.5072 189.996 80.1356 190 94.9713L189.928 94.914Z" fill="#F2FAFE"/>
<path d="M153.244 108.922C153.244 108.922 153.244 127.544 131.17 127.544C105.615 127.544 109.21 108.922 109.21 108.922C112.185 107.005 114.59 104.324 116.172 101.158C116.527 100.451 116.829 99.7186 117.075 98.9667C117.48 97.7639 117.749 96.5195 117.877 95.2567C118.386 90.6869 118.549 86.0852 118.364 81.4909L143.819 81.3477C143.963 86.0221 144.408 90.6824 145.151 95.2997C145.305 96.3403 145.53 97.3693 145.824 98.3795C146.072 99.2331 146.374 100.07 146.726 100.886C148.043 104.159 150.314 106.959 153.244 108.922Z" fill="#935D45"/>
<g style="mix-blend-mode:multiply" opacity="0.3">
<path d="M146.138 99.3861C146.138 99.3861 139.162 106.992 131.355 108.926C119.336 111.891 115.039 103.196 115.039 103.196C115.039 103.196 117.646 97.7102 117.904 95.3036C118.387 90.732 118.55 86.1322 118.391 81.5378L143.846 81.3945C143.99 86.069 144.435 90.7293 145.178 95.3467C145.416 96.7114 145.736 98.0603 146.138 99.3861Z" fill="#442E20"/>
</g>
<path d="M185.401 123.951C180.881 138.054 173.126 150.905 162.756 161.477C152.385 172.049 139.685 180.05 125.672 184.84C111.658 189.631 96.7189 191.078 82.0465 189.067C67.3741 187.055 53.3752 181.641 41.168 173.256C41.2718 169.39 41.8003 165.547 42.7437 161.796C44.6716 154.398 48.1588 147.497 52.9714 141.556C56.9795 136.579 61.6218 132.148 66.7802 128.377C86.0609 114.053 109.195 108.91 109.195 108.91C109.195 109.669 112.977 122.719 131.269 122.719C148.215 122.719 152.956 109.97 153.228 108.968C164.771 111.975 175.671 117.052 185.401 123.951Z" fill="#65C8D2"/>
<path d="M161.91 62.0689C161.167 62.0186 160.423 62.1673 159.756 62.4996C159.089 62.8319 158.522 63.3359 158.114 63.9597C159.948 46.1687 148.087 28.1485 131.141 28.8934C114.138 28.4064 102.492 46.0827 104.541 63.8164C103.409 61.8969 100.745 62.384 100.745 62.384C93.8402 63.8164 97.4929 75.9064 102.793 78.7569C103.944 79.3489 105.256 79.5499 106.532 79.3299C107.178 84.0557 108.839 88.5858 111.402 92.6087C113.923 96.7628 123.607 104.068 131.127 103.954H132.072C139.593 103.954 149.176 96.5765 151.654 92.3795C154.175 88.3332 155.788 83.788 156.381 79.0577C157.656 79.2593 158.963 79.0433 160.105 78.4418C165.319 75.5482 168.843 63.4584 161.91 62.0689Z" fill="#935D45"/>
<path d="M161.91 62.0688C160.727 62.7649 159.741 63.7509 159.045 64.9337C158.376 66.4004 157.857 67.9315 157.498 69.5032H156.294C156.294 69.5032 159.603 50.3227 155.55 48.0164C152.541 46.3118 151.782 46.584 149.104 43.5472C148.662 43.0353 148.183 42.5566 147.671 42.1148C143.56 37.7315 140.151 41.5417 132.287 41.8855C123.477 42.2866 117.704 37.1011 115.369 42.5158C115.226 42.745 115.097 42.9885 114.954 43.2607C113.711 45.7848 111.563 47.7485 108.938 48.7613C103.466 51.1106 107.921 69.6751 107.921 69.6751H106.589C106.439 68.0859 105.874 66.5642 104.948 65.2639C104.022 63.9635 102.77 62.9306 101.317 62.2693C100.566 55.9218 100.566 49.5079 101.317 43.1604C101.75 40.2567 102.753 37.4673 104.268 34.9525C108.05 28.3203 116.071 20.8286 131.341 20.628C147.098 20.4418 156.123 28.8789 159.847 35.2247C160.821 36.7685 161.519 38.4698 161.91 40.2526C162.948 47.4876 162.948 54.8338 161.91 62.0688Z" fill="#5C4235"/>
<path d="M18.5647 67.0541C25.641 50.6955 43.5466 45.6962 48.6461 49.8647C48.6461 49.8647 50.0785 45.0947 58.5443 45.4528C62.7361 45.6667 66.8429 46.7158 70.6237 48.5385C74.4045 50.3613 77.783 52.9209 80.561 56.0672C90.2157 67.0684 91.9347 76.8663 91.505 85.504C91.1755 92.3654 32.2732 101.419 24.8102 97.5795C17.1322 93.6117 15.0122 75.2906 18.5647 67.0541Z" fill="#342316"/>
<path d="M109.324 184.183L61.4802 183.854C54.3043 181.158 47.4834 177.599 41.1681 173.254C31.2747 166.427 22.7519 157.802 16.043 147.828C16.7162 147.685 17.3752 147.541 18.0198 147.369L19.1514 147.097L19.7244 146.94C23.0493 146.234 26.1637 144.762 28.8204 142.642C30.2804 141.322 31.4974 139.756 32.4158 138.015C32.766 137.329 33.0722 136.621 33.3326 135.895C33.5734 135.181 33.7742 134.454 33.9342 133.718C34.2959 131.831 34.4306 129.907 34.3354 127.988C34.1268 124.773 33.7249 121.573 33.1321 118.405C32.8456 116.615 32.5734 114.824 32.4158 113.062C32.2856 111.892 32.2187 110.716 32.2153 109.538C32.1992 107.272 32.7715 105.041 33.8763 103.062C34.9811 101.084 36.5805 99.4258 38.5181 98.2507C44.4484 94.3687 53.344 93.6239 59.8616 95.5863C59.956 95.6019 60.0476 95.6309 60.1338 95.6724C65.1474 97.2624 68.7284 100.485 68.1268 105.155C67.5252 109.825 67.1814 114.323 66.9522 118.506C66.9522 118.907 66.9522 119.308 66.9522 119.709C66.9522 120.669 66.8663 121.6 66.8376 122.574V122.932C66.8305 123.018 66.8305 123.104 66.8376 123.19V124.264C66.8376 124.98 66.8376 125.696 66.8376 126.37C66.8376 126.67 66.8376 126.971 66.8376 127.272C66.8376 127.645 66.8376 128.031 66.8376 128.404C66.8376 129.005 66.8376 129.593 66.9379 130.166C67.0382 130.739 66.9378 131.125 67.0381 131.598C67.4535 136.153 68.4706 139.577 70.2039 141.325C73.7315 144.587 77.8899 147.093 82.4227 148.687L83.2249 149.002L84.2992 149.432L86.3905 150.22L87.9232 150.807L89.1122 151.28L90.2868 151.753L91.8052 152.412L92.55 152.755L93.3665 153.128L94.0255 153.472L94.7417 153.858L95.0998 154.045C95.2142 154.12 95.3339 154.187 95.4579 154.245C96.2714 154.721 97.0603 155.237 97.8215 155.792L98.4518 156.265L99.3112 156.995L99.6837 157.325L99.9558 157.583L100.543 158.156C100.612 158.244 100.689 158.325 100.772 158.399C100.973 158.628 101.173 158.843 101.36 159.087C101.454 159.18 101.54 159.28 101.617 159.388L101.875 159.703L102.162 160.09L102.362 160.362L102.706 160.877C102.781 160.977 102.848 161.082 102.907 161.193L103.079 161.479C103.236 161.723 103.379 161.98 103.523 162.238L103.723 162.611V162.697L103.895 163.055C104.268 163.828 104.626 164.616 104.955 165.404L105.199 166.006L105.671 167.223C106.216 168.656 106.717 170.231 107.104 171.821C107.462 172.996 107.791 174.199 108.135 175.445L108.221 175.775C108.221 175.918 108.321 176.19 108.422 176.563C108.965 179.068 109.267 181.62 109.324 184.183Z" fill="#EABAA2"/>
<path d="M111.014 188.551C86.628 192.758 61.5633 187.268 41.1681 173.253C31.2747 166.426 22.7519 157.801 16.043 147.827C16.7162 147.712 17.3752 147.569 18.0484 147.426L19.18 147.154L19.753 146.996C21.2714 147.856 29.3791 158.556 42.8154 161.865C53.0861 164.4 66.4795 162.581 82.4369 148.715L83.2391 149.03L84.3134 149.46L86.4048 150.248L87.9376 150.835L89.1265 151.308L90.3011 151.78L91.8195 152.439L92.5643 152.783L93.3809 153.156L94.0398 153.499L94.756 153.886L95.1142 154.072C95.2286 154.148 95.3483 154.215 95.4723 154.273C96.2857 154.748 97.0745 155.265 97.8357 155.82L98.466 156.293L99.3256 157.023L99.698 157.353L99.9702 157.611L100.557 158.184C100.626 158.272 100.703 158.353 100.787 158.427C100.987 158.656 101.188 158.871 101.374 159.115C101.468 159.208 101.554 159.308 101.632 159.415L101.89 159.731L102.176 160.117L102.377 160.389L102.72 160.905C102.796 161.005 102.863 161.11 102.921 161.22L103.093 161.507C103.25 161.75 103.394 162.008 103.537 162.266L103.737 162.639V162.724L103.909 163.082C104.282 163.856 104.64 164.644 104.969 165.432L105.213 166.033L105.686 167.251C106.23 168.683 106.731 170.259 107.118 171.849C107.476 173.024 107.806 174.227 108.149 175.473L108.235 175.803C108.235 175.946 108.336 176.218 108.436 176.591C108.737 177.894 109.324 180.487 110.012 183.853C110.398 185.285 110.699 186.875 111.014 188.551Z" fill="#8DAB7E"/>
<path d="M66.9953 131.556C66.7844 129.122 66.7032 126.678 66.7518 124.236C66.7518 120.497 67.0096 116.171 67.4823 111.344C56.5384 112.289 43.3599 112.49 32.3731 113.149C32.6166 115.498 33.0606 117.761 33.4616 119.967L33.6336 120.998V121.285C33.7196 121.772 33.7911 122.259 33.8628 122.717C34.0203 123.777 34.1349 124.78 34.2065 125.783C34.2494 126.556 34.2494 127.331 34.2065 128.104C34.4708 131.557 33.8082 135.019 32.2871 138.131C36.9855 144.749 57.5841 145.551 66.9953 131.556Z" fill="#DFA88C"/>
<path d="M76.6496 90.0874C76.1339 93.8261 80.1448 97.4215 77.681 108.279C75.2745 118.822 62.984 133.591 56.9105 134.45C53.3723 134.966 37.4292 129.236 29.3358 111.932C26.2635 104.681 24.6756 96.8881 24.666 89.0131C24.8093 84.6154 26.2417 80.7478 26.9436 76.9375C28.376 68.7439 31.2409 62.9711 37.3718 61.066C45.5204 58.4669 54.2074 58.0472 62.5686 59.8484C70.8195 61.7966 79.0704 72.9267 76.6496 90.0874Z" fill="#EABAA2"/>
<path d="M26.6003 98.1106C26.6003 97.9817 25.2681 96.2199 24.7381 95.4893C23.7211 94.0569 20.8418 92.0658 19.0083 94.458C17.5759 96.3488 19.481 100.646 21.9735 104.356C24.2797 107.808 28.4195 110.358 29.1357 110.401C29.852 110.444 27.0157 99.6863 26.6003 98.1106Z" fill="#EABAA2"/>
<path d="M24.6377 68.2563C30.568 57.1835 44.4771 52.6999 52.9142 51.7975C62.5303 50.6967 72.1987 53.3666 79.8872 59.2461C89.0262 66.4084 90.7452 76.3353 91.4471 80.4464C93.696 93.4817 85.3162 109.955 78.2399 113.65C81.1907 106.388 77.6813 92.0636 70.1609 84.3857C69.8744 87.136 70.2611 90.1154 73.9425 95.2149C69.323 95.517 64.7395 94.2275 60.955 91.5612C57.1706 88.8949 54.4137 85.0127 53.1434 80.561C51.8972 82.681 52.4988 86.4771 55.2778 91.9347C46.4825 91.9347 37.4724 82.5234 38.3605 71.8803C29.995 77.2234 29.3505 91.1469 28.2618 95.8883C26.9296 101.819 25.626 98.1944 24.609 94.8424C22.7182 88.4824 19.753 77.4383 24.6377 68.2563Z" fill="#201C19"/>
</g>
</svg>
